<svg xmlns="http://www.w3.org/2000/svg" viewBox="0 0 1360 1600" width="1360" height="1600" role="img"><title>node-versus-receiver-path-contract</title><defs><marker id="arrow" markerUnits="userSpaceOnUse" markerWidth="10" markerHeight="12" refX="9" refY="6" orient="auto"><path d="M1 1L9 6L1 11L3.3 6Z" fill="context-stroke"/></marker></defs><rect width="1360" height="1600" fill="#F8FAFC"/><g font-family="sans-serif" fill="#0F172A"><text x="40" y="52" fill="#0F172A" font-size="28">A graph hypothesis and a selected path intervention are not the same object</text><text x="40" y="155" fill="#DC2626" font-size="28">Node replacement: every outgoing use can change</text><rect x="40" y="330" width="290" height="140" rx="7" fill="#DC2626" fill-opacity=".07" stroke="#DC2626" stroke-width="2"/><text x="66" y="413" fill="#DC2626" font-size="29">Source A</text><rect x="630" y="195" width="290" height="140" rx="7" fill="#DC2626" fill-opacity=".07" stroke="#DC2626" stroke-width="2"/><text x="656" y="278" fill="#DC2626" font-size="28">Receiver R</text><rect x="630" y="530" width="290" height="140" rx="7" fill="#475569" fill-opacity=".07" stroke="#475569" stroke-width="2"/><text x="656" y="613" fill="#475569" font-size="26">Other receiver S</text><rect x="1110" y="330" width="190" height="140" rx="7" fill="#059669" fill-opacity=".07" stroke="#059669" stroke-width="2"/><text x="1140" y="413" fill="#059669" font-size="32">Y</text><path d="M344 370H485V265H616" fill="none" stroke="#DC2626" stroke-width="3"  marker-end="url(#arrow)"/><path d="M344 430H485V600H616" fill="none" stroke="#DC2626" stroke-width="3"  marker-end="url(#arrow)"/><path d="M934 265H1020V370H1096" fill="none" stroke="#7C3AED" stroke-width="3"  marker-end="url(#arrow)"/><path d="M934 600H1020V430H1096" fill="none" stroke="#475569" stroke-width="3"  marker-end="url(#arrow)"/><text x="40" y="842" fill="#DC2626" font-size="26">Path patch: change A → R; retain A → S from the stated baseline</text><rect x="40" y="1010" width="290" height="140" rx="7" fill="#2563EB" fill-opacity=".07" stroke="#2563EB" stroke-width="2"/><text x="66" y="1093" fill="#2563EB" font-size="29">Source A</text><rect x="630" y="875" width="290" height="140" rx="7" fill="#7C3AED" fill-opacity=".07" stroke="#7C3AED" stroke-width="2"/><text x="656" y="958" fill="#7C3AED" font-size="28">Receiver R</text><rect x="630" y="1210" width="290" height="140" rx="7" fill="#475569" fill-opacity=".07" stroke="#475569" stroke-width="2"/><text x="656" y="1293" fill="#475569" font-size="26">Other receiver S</text><rect x="1110" y="1010" width="190" height="140" rx="7" fill="#059669" fill-opacity=".07" stroke="#059669" stroke-width="2"/><text x="1140" y="1093" fill="#059669" font-size="32">Y</text><path d="M344 1050H485V945H616" fill="none" stroke="#DC2626" stroke-width="3"  marker-end="url(#arrow)"/><path d="M344 1110H485V1280H616" fill="none" stroke="#475569" stroke-width="3" stroke-dasharray="8 7" marker-end="url(#arrow)"/><path d="M934 945H1020V1050H1096" fill="none" stroke="#7C3AED" stroke-width="3"  marker-end="url(#arrow)"/><path d="M934 1280H1020V1110H1096" fill="none" stroke="#475569" stroke-width="3" stroke-dasharray="8 7" marker-end="url(#arrow)"/><text x="40" y="1520" fill="#475569" font-size="26">Specify source values, receiver hooks and the execution supplying retained paths.</text></g></svg>

