<?xml version="1.0" encoding="utf-8" standalone="no"?>
<!DOCTYPE svg PUBLIC "-//W3C//DTD SVG 1.1//EN"
  "http://www.w3.org/Graphics/SVG/1.1/DTD/svg11.dtd">
<svg xmlns:xlink="http://www.w3.org/1999/xlink" width="520pt" height="1040pt" viewBox="0 0 520 1040" xmlns="http://www.w3.org/2000/svg" version="1.1">
 <metadata>
  <rdf:RDF xmlns:dc="http://purl.org/dc/elements/1.1/" xmlns:cc="http://creativecommons.org/ns#" xmlns:rdf="http://www.w3.org/1999/02/22-rdf-syntax-ns#">
   <cc:Work>
    <dc:type rdf:resource="http://purl.org/dc/dcmitype/StillImage"/>
    <dc:format>image/svg+xml</dc:format>
    <dc:creator>
     <cc:Agent>
      <dc:title>Matplotlib v3.10.7, https://matplotlib.org/</dc:title>
     </cc:Agent>
    </dc:creator>
   </cc:Work>
  </rdf:RDF>
 </metadata>
 <defs>
  <style type="text/css">*{stroke-linejoin: round; stroke-linecap: butt}</style>
 </defs>
 <g id="figure_1">
  <g id="patch_1">
   <path d="M 0 1040 
L 520 1040 
L 520 0 
L 0 0 
z
" style="fill: #f8fafc"/>
  </g>
  <g id="axes_1">
   <g id="patch_2">
    <path d="M 114.4 717.6 
L 457.6 717.6 
L 457.6 301.6 
L 114.4 301.6 
z
" style="fill: #f8fafc"/>
   </g>
   <g id="matplotlib.axis_1">
    <g id="xtick_1">
     <g id="line2d_1">
      <path d="M 122.770732 717.6 
L 122.770732 301.6 
" clip-path="url(#pa737fd85e1)" style="fill: none; stroke: #cbd5e1; stroke-opacity: 0.65; stroke-width: 0.8; stroke-linecap: square"/>
     </g>
     <g id="line2d_2">
      <defs>
       <path id="mce0931db95" d="M 0 0 
L 0 3.5 
" style="stroke: #000000; stroke-width: 0.8"/>
      </defs>
      <g>
       <use xlink:href="#mce0931db95" x="122.770732" y="717.6" style="stroke: #000000; stroke-width: 0.8"/>
      </g>
     </g>
     <g id="text_1">
      <text style="font-size: 22px; font-family: 'DejaVu Sans'; text-anchor: middle" x="122.770732" y="741.316563" transform="rotate(-0 122.770732 741.316563)">50</text>
     </g>
    </g>
    <g id="xtick_2">
     <g id="line2d_3">
      <path d="M 185.55122 717.6 
L 185.55122 301.6 
" clip-path="url(#pa737fd85e1)" style="fill: none; stroke: #cbd5e1; stroke-opacity: 0.65; stroke-width: 0.8; stroke-linecap: square"/>
     </g>
     <g id="line2d_4">
      <g>
       <use xlink:href="#mce0931db95" x="185.55122" y="717.6" style="stroke: #000000; stroke-width: 0.8"/>
      </g>
     </g>
     <g id="text_2">
      <text style="font-size: 22px; font-family: 'DejaVu Sans'; text-anchor: middle" x="185.55122" y="741.316563" transform="rotate(-0 185.55122 741.316563)">200</text>
     </g>
    </g>
    <g id="xtick_3">
     <g id="line2d_5">
      <path d="M 436.673171 717.6 
L 436.673171 301.6 
" clip-path="url(#pa737fd85e1)" style="fill: none; stroke: #cbd5e1; stroke-opacity: 0.65; stroke-width: 0.8; stroke-linecap: square"/>
     </g>
     <g id="line2d_6">
      <g>
       <use xlink:href="#mce0931db95" x="436.673171" y="717.6" style="stroke: #000000; stroke-width: 0.8"/>
      </g>
     </g>
     <g id="text_3">
      <text style="font-size: 22px; font-family: 'DejaVu Sans'; text-anchor: middle" x="436.673171" y="741.316563" transform="rotate(-0 436.673171 741.316563)">800</text>
     </g>
    </g>
    <g id="text_4">
     <text style="font-size: 24px; font-family: 'DejaVu Sans'; text-anchor: middle" x="286" y="768.128125" transform="rotate(-0 286 768.128125)">Dimension d</text>
    </g>
   </g>
   <g id="matplotlib.axis_2">
    <g id="ytick_1">
     <g id="line2d_7">
      <path d="M 114.4 717.6 
L 457.6 717.6 
" clip-path="url(#pa737fd85e1)" style="fill: none; stroke: #cbd5e1; stroke-opacity: 0.65; stroke-width: 0.8; stroke-linecap: square"/>
     </g>
     <g id="line2d_8">
      <defs>
       <path id="maa5ae7bf05" d="M 0 0 
L -3.5 0 
" style="stroke: #000000; stroke-width: 0.8"/>
      </defs>
      <g>
       <use xlink:href="#maa5ae7bf05" x="114.4" y="717.6" style="stroke: #000000; stroke-width: 0.8"/>
      </g>
     </g>
     <g id="text_5">
      <text style="font-size: 22px; font-family: 'DejaVu Sans'; text-anchor: end" x="107.4" y="725.958281" transform="rotate(-0 107.4 725.958281)">0.0</text>
     </g>
    </g>
    <g id="ytick_2">
     <g id="line2d_9">
      <path d="M 114.4 528.509091 
L 457.6 528.509091 
" clip-path="url(#pa737fd85e1)" style="fill: none; stroke: #cbd5e1; stroke-opacity: 0.65; stroke-width: 0.8; stroke-linecap: square"/>
     </g>
     <g id="line2d_10">
      <g>
       <use xlink:href="#maa5ae7bf05" x="114.4" y="528.509091" style="stroke: #000000; stroke-width: 0.8"/>
      </g>
     </g>
     <g id="text_6">
      <text style="font-size: 22px; font-family: 'DejaVu Sans'; text-anchor: end" x="107.4" y="536.867372" transform="rotate(-0 107.4 536.867372)">0.5</text>
     </g>
    </g>
    <g id="ytick_3">
     <g id="line2d_11">
      <path d="M 114.4 339.418182 
L 457.6 339.418182 
" clip-path="url(#pa737fd85e1)" style="fill: none; stroke: #cbd5e1; stroke-opacity: 0.65; stroke-width: 0.8; stroke-linecap: square"/>
     </g>
     <g id="line2d_12">
      <g>
       <use xlink:href="#maa5ae7bf05" x="114.4" y="339.418182" style="stroke: #000000; stroke-width: 0.8"/>
      </g>
     </g>
     <g id="text_7">
      <text style="font-size: 22px; font-family: 'DejaVu Sans'; text-anchor: end" x="107.4" y="347.776463" transform="rotate(-0 107.4 347.776463)">1.0</text>
     </g>
    </g>
    <g id="text_8">
     <text style="font-size: 24px; font-family: 'DejaVu Sans'; text-anchor: middle" x="63.421875" y="509.6" transform="rotate(-90 63.421875 509.6)">Upper probability limit</text>
    </g>
   </g>
   <g id="line2d_13">
    <path d="M 122.770732 339.418182 
L 124.344178 365.864463 
L 125.917623 388.853714 
L 127.491069 409.022197 
L 129.064515 426.859065 
L 130.637961 442.746547 
L 132.211407 456.987659 
L 133.784852 469.825705 
L 136.145021 486.874395 
L 138.50519 501.727975 
L 140.865359 514.784751 
L 143.225527 526.35216 
L 145.585696 536.671288 
L 147.945865 545.93385 
L 150.306033 554.294215 
L 152.666202 561.878075 
L 155.026371 568.788811 
L 157.38654 575.112233 
L 159.746708 580.920158 
L 162.106877 586.273155 
L 165.253769 592.790616 
L 168.40066 598.691769 
L 171.547552 604.060086 
L 174.694443 608.964618 
L 177.841335 613.462978 
L 180.988227 617.603615 
L 184.135118 621.427568 
L 188.068733 625.814997 
L 192.002347 629.819578 
L 195.935962 633.489328 
L 199.869576 636.864556 
L 203.803191 639.979349 
L 208.523528 643.413891 
L 213.243866 646.55737 
L 217.964203 649.445282 
L 223.471264 652.531201 
L 228.978324 655.349775 
L 234.485384 657.934304 
L 240.779167 660.637167 
L 247.072951 663.105762 
L 254.153457 665.639068 
L 261.233963 667.947303 
L 269.101192 670.282802 
L 277.755144 672.610571 
L 287.195819 674.902053 
L 297.423217 677.13485 
L 308.437337 679.292169 
L 320.238181 681.362117 
L 332.825747 683.336933 
L 346.200037 685.212246 
L 361.147772 687.079259 
L 377.668953 688.907369 
L 395.76358 690.673778 
L 415.431652 692.362578 
L 436.673171 693.963636 
L 436.673171 693.963636 
" clip-path="url(#pa737fd85e1)" style="fill: none; stroke: #d97706; stroke-width: 3; stroke-linecap: square"/>
   </g>
   <g id="patch_3">
    <path d="M 114.4 717.6 
L 114.4 301.6 
" style="fill: none; stroke: #000000; stroke-width: 0.8; stroke-linejoin: miter; stroke-linecap: square"/>
   </g>
   <g id="patch_4">
    <path d="M 114.4 717.6 
L 457.6 717.6 
" style="fill: none; stroke: #000000; stroke-width: 0.8; stroke-linejoin: miter; stroke-linecap: square"/>
   </g>
   <g id="PathCollection_1">
    <defs>
     <path id="m7fdaecbca8" d="M 0 4.031129 
C 1.069068 4.031129 2.094493 3.606384 2.850439 2.850439 
C 3.606384 2.094493 4.031129 1.069068 4.031129 0 
C 4.031129 -1.069068 3.606384 -2.094493 2.850439 -2.850439 
C 2.094493 -3.606384 1.069068 -4.031129 0 -4.031129 
C -1.069068 -4.031129 -2.094493 -3.606384 -2.850439 -2.850439 
C -3.606384 -2.094493 -4.031129 -1.069068 -4.031129 0 
C -4.031129 1.069068 -3.606384 2.094493 -2.850439 2.850439 
C -2.094493 3.606384 -1.069068 4.031129 0 4.031129 
z
" style="stroke: #d97706"/>
    </defs>
    <g clip-path="url(#pa737fd85e1)">
     <use xlink:href="#m7fdaecbca8" x="122.770732" y="339.418182" style="fill: #d97706; stroke: #d97706"/>
     <use xlink:href="#m7fdaecbca8" x="185.55122" y="623.054545" style="fill: #d97706; stroke: #d97706"/>
     <use xlink:href="#m7fdaecbca8" x="436.673171" y="693.963636" style="fill: #d97706; stroke: #d97706"/>
    </g>
   </g>
  </g>
  <g id="text_9">
   <text style="font-size: 24px; font-family: 'DejaVu Sans'; text-anchor: start" x="40.04" y="52" transform="rotate(-0 40.04 52)">A fixed tolerance, not a fixed draw</text>
  </g>
  <g id="text_10">
   <text style="font-size: 28px; font-family: 'DejaVu Sans'; text-anchor: start; fill: #d97706" x="40.04" y="135.2" transform="rotate(-0 40.04 135.2)">Event: |S − 1| ≥ 0.2</text>
  </g>
  <g id="text_11">
   <text style="font-size: 28px; font-family: 'DejaVu Sans'; text-anchor: start" x="40.04" y="218.4" transform="rotate(-0 40.04 218.4)">Bound: min(1, 50 / d)</text>
  </g>
  <g id="text_12">
   <text style="font-size: 27px; font-family: 'DejaVu Sans'; text-anchor: start" x="40.04" y="832" transform="rotate(-0 40.04 832)">d = 200: probability ≤ 0.25</text>
  </g>
  <g id="text_13">
   <text style="font-size: 25px; font-family: 'DejaVu Sans'; text-anchor: start" x="40.04" y="904.8" transform="rotate(-0 40.04 904.8)">d = 800: probability ≤ 0.0625</text>
  </g>
  <g id="text_14">
   <text style="font-size: 24px; font-family: 'DejaVu Sans'; text-anchor: start; fill: #64748b" x="40.04" y="977.6" transform="rotate(-0 40.04 977.6)">The curve is not an observed rate.</text>
  </g>
 </g>
 <defs>
  <clipPath id="pa737fd85e1">
   <rect x="114.4" y="301.6" width="343.2" height="416"/>
  </clipPath>
 </defs>
</svg>
