<svg xmlns="http://www.w3.org/2000/svg" viewBox="0 0 660 490" width="660" height="490" role="img"><title>Squaring each component commutes with swapping the components</title><defs><marker id="arrow" markerUnits="userSpaceOnUse" markerWidth="9" markerHeight="12" refX="8.5" refY="6" orient="auto"><path d="M0.5 0.8L8.5 6L0.5 11.2L3 6Z" fill="context-stroke"/></marker></defs><rect width="660" height="490" fill="#F8FAFC"/><g font-family="sans-serif" fill="#0F172A" font-size="22"><text x="40" y="44" fill="#0F172A" font-size="23">Equivariant: outputs follow input positions</text><rect x="40" y="98" width="78" height="60" rx="6" fill="#2563EB" fill-opacity=".06" stroke="#2563EB" stroke-width="2"/><text x="68" y="137" fill="#2563EB" font-size="22">2</text><rect x="162" y="98" width="78" height="60" rx="6" fill="#D97706" fill-opacity=".06" stroke="#D97706" stroke-width="2"/><text x="190" y="137" fill="#D97706" font-size="22">−1</text><rect x="396" y="98" width="78" height="60" rx="6" fill="#2563EB" fill-opacity=".06" stroke="#2563EB" stroke-width="2"/><text x="424" y="137" fill="#2563EB" font-size="22">4</text><rect x="518" y="98" width="78" height="60" rx="6" fill="#D97706" fill-opacity=".06" stroke="#D97706" stroke-width="2"/><text x="546" y="137" fill="#D97706" font-size="22">1</text><rect x="40" y="315" width="78" height="60" rx="6" fill="#D97706" fill-opacity=".06" stroke="#D97706" stroke-width="2"/><text x="68" y="354" fill="#D97706" font-size="22">−1</text><rect x="162" y="315" width="78" height="60" rx="6" fill="#2563EB" fill-opacity=".06" stroke="#2563EB" stroke-width="2"/><text x="190" y="354" fill="#2563EB" font-size="22">2</text><rect x="396" y="315" width="78" height="60" rx="6" fill="#D97706" fill-opacity=".06" stroke="#D97706" stroke-width="2"/><text x="424" y="354" fill="#D97706" font-size="22">1</text><rect x="518" y="315" width="78" height="60" rx="6" fill="#2563EB" fill-opacity=".06" stroke="#2563EB" stroke-width="2"/><text x="546" y="354" fill="#2563EB" font-size="22">4</text><path d="M261 128L376 128" fill="none" stroke="#7C3AED" stroke-width="2.5" marker-end="url(#arrow)"/><path d="M261 345L376 345" fill="none" stroke="#7C3AED" stroke-width="2.5" marker-end="url(#arrow)"/><text x="275" y="101" fill="#7C3AED" font-size="20">Square</text><text x="275" y="317" fill="#7C3AED" font-size="20">Square</text><path d="M79 177L201 295" fill="none" stroke="#7C3AED" stroke-width="2.5" marker-end="url(#arrow)"/><path d="M201 177L79 295" fill="none" stroke="#7C3AED" stroke-width="2.5" marker-end="url(#arrow)"/><path d="M435 177L557 295" fill="none" stroke="#7C3AED" stroke-width="2.5" marker-end="url(#arrow)"/><path d="M557 177L435 295" fill="none" stroke="#7C3AED" stroke-width="2.5" marker-end="url(#arrow)"/><text x="49" y="247" fill="#7C3AED" font-size="22">P</text><text x="409" y="247" fill="#7C3AED" font-size="22">P</text><text x="40" y="445" fill="#475569" font-size="20">Both paths end at (1, 4)ᵀ; component identity follows P.</text></g></svg>
