<svg xmlns="http://www.w3.org/2000/svg" width="1080" height="855" viewBox="0 0 1080 855"><defs><marker id="arrow" markerWidth="9" markerHeight="12" refX="8.5" refY="6" orient="auto" markerUnits="userSpaceOnUse"><path d="M0.5 0.8L8.5 6L0.5 11.2L3 6Z" fill="context-stroke"/></marker></defs><rect width="1080" height="855" fill="#F8FAFC"/><g font-family="sans-serif"><text x="540" y="46" font-size="29" fill="#0F172A" text-anchor="middle">Serial pre-norm branches keep the unnormalized skip stream</text><rect x="60" y="125" width="290" height="112" rx="10" fill="#FFF" stroke="#2563EB" stroke-width="2"/><text x="205" y="168" font-size="28" fill="#2563EB" text-anchor="middle">e₂: shape (4,)</text><text x="205" y="212" font-size="25" fill="#0F172A" text-anchor="middle">original stream</text><path d="M350 181H424" fill="none" stroke="#7C3AED" stroke-width="2.6" marker-end="url(#arrow)"/><rect x="439" y="125" width="286" height="112" rx="10" fill="#FFF" stroke="#7C3AED" stroke-width="2"/><text x="582" y="167" font-size="26" fill="#7C3AED" text-anchor="middle">attention branch</text><text x="582" y="212" font-size="23" fill="#0F172A" text-anchor="middle">RMSNorm(e₂) → Δr_A,₂</text><path d="M725 181H819" fill="none" stroke="#7C3AED" stroke-width="2.6" marker-end="url(#arrow)"/><rect x="834" y="125" width="185" height="112" rx="10" fill="#FFF" stroke="#059669" stroke-width="2"/><text x="926.5" y="168" font-size="28" fill="#059669" text-anchor="middle">r_mid,₂</text><text x="926.5" y="212" font-size="23" fill="#0F172A" text-anchor="middle">e₂ + Δr_A,₂</text><path d="M205 237V292H875V252" fill="none" stroke="#2563EB" stroke-width="2.6" marker-end="url(#arrow)"/><path d="M968 237V353H205V413" fill="none" stroke="#059669" stroke-width="2.6" marker-end="url(#arrow)"/><rect x="60" y="428" width="290" height="112" rx="10" fill="#FFF" stroke="#059669" stroke-width="2"/><text x="205" y="471" font-size="25" fill="#059669" text-anchor="middle">r_mid,₂: shape (4,)</text><text x="205" y="515" font-size="25" fill="#0F172A" text-anchor="middle">new skip stream</text><path d="M350 484H424" fill="none" stroke="#7C3AED" stroke-width="2.6" marker-end="url(#arrow)"/><rect x="439" y="428" width="286" height="112" rx="10" fill="#FFF" stroke="#7C3AED" stroke-width="2"/><text x="582" y="459" font-size="27" fill="#7C3AED" text-anchor="middle">MLP branch</text><text x="582" y="496" font-size="23" fill="#0F172A" text-anchor="middle">RMSNorm(r_mid,₂)</text><path d="M725 484H819" fill="none" stroke="#7C3AED" stroke-width="2.6" marker-end="url(#arrow)"/><rect x="834" y="428" width="185" height="112" rx="10" fill="#FFF" stroke="#059669" stroke-width="2"/><text x="926.5" y="471" font-size="28" fill="#059669" text-anchor="middle">r_out,₂</text><text x="926.5" y="515" font-size="21" fill="#0F172A" text-anchor="middle">r_mid,₂ + Δr_M,₂</text><path d="M205 540V594H875V555" fill="none" stroke="#059669" stroke-width="2.6" marker-end="url(#arrow)"/><text x="582" y="529" font-size="21" fill="#7C3AED" text-anchor="middle">SwiGLU → Δr_M,₂</text><path d="M968 540V662H729" fill="none" stroke="#059669" stroke-width="2.6" marker-end="url(#arrow)"/><rect x="360" y="643" width="354" height="100" rx="10" fill="#FFF" stroke="#7C3AED" stroke-width="2"/><text x="537" y="683" font-size="25" fill="#7C3AED" text-anchor="middle">final RMSNorm(r_out,₂)</text><text x="537" y="724" font-size="24" fill="#0F172A" text-anchor="middle">unembedding → logits (16,)</text><text x="540" y="808" font-size="24" fill="#64748B" text-anchor="middle">Norm outputs feed branches; skip additions keep their source streams.</text></g></svg>
